<svg xmlns="http://www.w3.org/2000/svg" width="16" height="16" viewBox="0 0 16 16"><g><g><path fill="#fa9512" d="M16.003 4.996v6.005a5.005 5.005 0 0 1-5.004 5.003H4.994a5.004 5.004 0 0 1-5.003-5.003V4.996A5.004 5.004 0 0 1 4.994-.007H11a5.005 5.005 0 0 1 5.004 5.003zm-1.502 0A3.507 3.507 0 0 0 11 1.493H4.994a3.506 3.506 0 0 0-3.502 3.503v6.005a3.506 3.506 0 0 0 3.502 3.502H11a3.506 3.506 0 0 0 3.502-3.502zM12 7.998a4.003 4.003 0 1 1-8.006 0 4.003 4.003 0 0 1 8.006 0zm-1.5 0a2.505 2.505 0 0 0-2.502-2.502 2.505 2.505 0 0 0-2.502 2.502 2.505 2.505 0 0 0 2.502 2.503 2.505 2.505 0 0 0 2.501-2.503zm1.8-4.836a.533.533 0 1 1 0 1.066.533.533 0 0 1 0-1.066z"/></g></g></svg>