<svg xmlns="http://www.w3.org/2000/svg" width="26" height="26" viewBox="0 0 26 26"><g><g><path fill="#fa9512" d="M24.525 11.71c.06.363.374.615.732.615.044 0 .082-.005.126-.01a.727.727 0 0 0 .605-.846 13.912 13.912 0 0 0-3.923-7.546A13.981 13.981 0 0 0 14.5.011a.741.741 0 0 0-.853.604.745.745 0 0 0 .61.856 12.513 12.513 0 0 1 6.763 3.496 12.418 12.418 0 0 1 3.506 6.743zm-4.722.225c.06.363.375.615.732.615.044 0 .083-.005.127-.01a.742.742 0 0 0 .611-.857 8.461 8.461 0 0 0-2.383-4.582 8.494 8.494 0 0 0-4.595-2.376.746.746 0 0 0-.858.603c-.072.4.192.79.6.856a6.994 6.994 0 0 1 3.796 1.965 6.99 6.99 0 0 1 1.97 3.786zm2.715 9.951s.002 0 .003-.002zM4.109 3.376c.27-.254.556-.39.837-.39.347 0 .627.208.804.383l.016.017c.336.313.654.636.99.982.171.176.347.352.523.533l1.502 1.497c.583.582.583 1.12 0 1.701-.16.16-.313.32-.472.472a28.3 28.3 0 0 1-1.382 1.34c-.01.011-.022.016-.028.027-.473.472-.385.933-.286 1.246a.75.75 0 0 1 .017.05c.39.942.94 1.832 1.778 2.891l.005.005c1.518 1.866 3.12 3.32 4.886 4.435.226.142.456.257.677.367.198.099.385.193.544.29.023.011.045.029.067.04.187.093.363.137.545.137.456 0 .743-.286.836-.379l1.881-1.877c.188-.187.486-.412.832-.412.341 0 .622.215.792.4l.01.012 3.033 3.024c.567.56.567 1.135.005 1.717-.214.231-.434.44-.671.67-.357.34-.72.697-1.062 1.097-.555.593-1.21.873-2.07.873-.08 0-.17 0-.252-.006-1.634-.104-3.153-.74-4.292-1.284-3.114-1.504-5.85-3.638-8.122-6.343-1.876-2.256-3.13-4.341-3.961-6.58-.513-1.366-.7-2.431-.617-3.436a2.516 2.516 0 0 1 .759-1.629l1.876-1.87zm14.258 22.613c.115.005.237.01.347.01 1.271 0 2.339-.455 3.175-1.36.005-.011.017-.016.022-.027.286-.346.617-.659.963-.994.236-.225.48-.46.716-.708.544-.564.83-1.223.83-1.898 0-.68-.291-1.334-.847-1.883l-3.022-3.023c-.533-.555-1.177-.85-1.86-.85-.676 0-1.326.29-1.88.844l-1.74 1.728c-.143-.076-.286-.147-.424-.218-.198-.1-.385-.193-.544-.292-1.63-1.031-3.11-2.375-4.529-4.115-.688-.867-1.15-1.597-1.486-2.338.451-.411.87-.84 1.276-1.25.155-.155.309-.314.463-.467 1.156-1.152 1.156-2.645 0-3.797L8.325 3.852c-.171-.17-.347-.345-.512-.52-.33-.34-.677-.692-1.034-1.021-.534-.527-1.172-.808-1.844-.808-.67 0-1.32.281-1.87.808l-.011.01-1.872 1.882A4.011 4.011 0 0 0-.012 6.755C-.144 8.358.33 9.85.693 10.827c.89 2.398 2.223 4.62 4.21 7.002 2.41 2.87 5.31 5.137 8.622 6.733 1.265.598 2.955 1.306 4.842 1.427z"/></g></g></svg>